<svg width="1168" height="406" viewBox="0 0 1168 406" fill="none" xmlns="http://www.w3.org/2000/svg">
<path d="M229.062 147V55.375H256.75L273.375 117.875L289.812 55.375H317.562V147H300.375V74.875L282.188 147H264.375L246.25 74.875V147H229.062ZM334.438 55.375H352.938V77.25C352.938 84.3333 353.188 89.0417 353.688 91.375C354.229 93.6667 355.792 95.6667 358.375 97.375C360.958 99.0833 364.75 99.9375 369.75 99.9375C373.708 99.9375 377.229 99.5208 380.312 98.6875C383.396 97.8125 386.062 96.5417 388.312 94.875V55.375H406.812V147H388.312V110.125C384.562 111.792 380.875 113.062 377.25 113.938C373.625 114.771 370.062 115.188 366.562 115.188C357.438 115.188 349.792 113.042 343.625 108.75C337.5 104.417 334.438 96.9375 334.438 86.3125V55.375ZM426.188 55.375H443.5V116.375L480.625 55.375H499.062V147H481.75V87.1875L444.688 147H426.188V55.375ZM576.562 113.312L594.5 119C591.75 129 587.167 136.438 580.75 141.312C574.375 146.146 566.271 148.562 556.438 148.562C544.271 148.562 534.271 144.417 526.438 136.125C518.604 127.792 514.688 116.417 514.688 102C514.688 86.75 518.625 74.9167 526.5 66.5C534.375 58.0417 544.729 53.8125 557.562 53.8125C568.771 53.8125 577.875 57.125 584.875 63.75C589.042 67.6667 592.167 73.2917 594.25 80.625L575.938 85C574.854 80.25 572.583 76.5 569.125 73.75C565.708 71 561.542 69.625 556.625 69.625C549.833 69.625 544.312 72.0625 540.062 76.9375C535.854 81.8125 533.75 89.7083 533.75 100.625C533.75 112.208 535.833 120.458 540 125.375C544.167 130.292 549.583 132.75 556.25 132.75C561.167 132.75 565.396 131.188 568.938 128.062C572.479 124.938 575.021 120.021 576.562 113.312ZM627.812 147V70.875H600.625V55.375H673.438V70.875H646.312V147H627.812ZM685.75 55.375H704.25V94.375C708.375 93.9583 711.167 92.8958 712.625 91.1875C714.083 89.4792 716.333 84.7292 719.375 76.9375C723.208 67.0208 727.062 60.8542 730.938 58.4375C734.771 56.0208 740.958 54.8125 749.5 54.8125C749.917 54.8125 750.812 54.7917 752.188 54.75V68.4375L749.562 68.375C745.771 68.375 743 68.8542 741.25 69.8125C739.5 70.7292 738.083 72.1458 737 74.0625C735.917 75.9792 734.312 79.9167 732.188 85.875C731.062 89.0417 729.833 91.6875 728.5 93.8125C727.208 95.9375 724.896 97.9375 721.562 99.8125C725.688 100.979 729.083 103.333 731.75 106.875C734.458 110.417 737.417 115.417 740.625 121.875L753.125 147H731.375L720.438 123.312C720.271 122.979 719.917 122.333 719.375 121.375C719.167 121.042 718.396 119.604 717.062 117.062C714.688 112.562 712.729 109.75 711.188 108.625C709.688 107.5 707.375 106.917 704.25 106.875V147H685.75V55.375ZM846.188 147H826.062L818.062 126.188H781.438L773.875 147H754.25L789.938 55.375H809.5L846.188 147ZM812.125 110.75L799.5 76.75L787.125 110.75H812.125Z" fill="#176335"/>
<rect x="0.5" y="0.5" width="203" height="203" fill="url(#paint0_linear_411_3)" stroke="#002304"/>
<path d="M13 147L44.3125 99.1875L15.9375 55.375H37.5625L55.9375 84.8125L73.9375 55.375H95.375L66.875 99.875L98.1875 147H75.875L55.5625 115.312L35.1875 147H13ZM107.938 55.375H125.25V116.375L162.375 55.375H180.812V147H163.5V87.1875L126.438 147H107.938V55.375Z" fill="white"/>
<path d="M80.57 180.81C80.57 181.87 79.88 183 77.95 183H71.63L71.65 176H77.46C79.05 176 80.08 176.86 80.08 178.2C80.08 178.54 80.01 178.89 79.85 179.21C80.31 179.59 80.57 180.14 80.57 180.81ZM73.44 180.41L73.43 181.2H77.95C78.41 181.2 78.61 181.1 78.67 181.06C78.72 181.03 78.77 181 78.77 180.81C78.77 180.69 78.77 180.41 77.95 180.41H73.44ZM73.44 177.8V178.61H77.46C77.91 178.61 78.11 178.51 78.18 178.46C78.22 178.43 78.28 178.39 78.28 178.2C78.28 178.08 78.28 177.8 77.46 177.8H73.44ZM86.1923 178C88.0123 178 89.1423 178.95 89.1423 180.49C89.1423 181.31 88.7923 182.01 88.1523 182.45C87.6423 182.8 86.9823 182.98 86.1923 182.98L81.5423 182.99V176.01H83.3423V178H86.1923ZM86.1923 181.18C87.3423 181.18 87.3423 180.69 87.3423 180.49C87.3423 180.26 87.3423 179.79 86.1923 179.79L83.3423 179.8V181.19L86.1923 181.18ZM91.3123 183H89.5223V176.01H91.3123V183ZM100.977 180.89C100.407 182.35 98.9068 183.15 96.7568 183.15C95.5168 183.15 94.4968 182.88 93.7268 182.35C92.7968 181.71 92.2968 180.72 92.2968 179.48C92.2968 177.19 93.9668 175.82 96.7568 175.82C98.9568 175.82 100.517 176.7 101.037 178.25L99.3268 178.82C98.9768 177.77 97.5668 177.61 96.7568 177.61C94.0968 177.61 94.0968 179.02 94.0968 179.48C94.0968 180.72 94.9968 181.35 96.7568 181.35C97.7168 181.35 98.9368 181.16 99.3068 180.23L100.977 180.89ZM111.073 176.01H112.873V183H101.923V176.01H103.723V181.2H106.503V176.01H108.293V181.2H111.073V176.01ZM122.05 177.8H115.96V178.6H121.26V180.4H115.96V181.2H122.05V183H114.16V176H122.05V177.8ZM131.024 177.8H124.934V178.6H130.234V180.4H124.934V181.2H131.024V183H123.134V176H131.024V177.8Z" fill="white"/>
<path d="M477.562 257.375H494.875V318.375L532 257.375H550.438V349H533.125V289.188L496.062 349H477.562V257.375ZM525.062 234.562H533.625C533.125 240.229 531.125 244.688 527.625 247.938C524.167 251.146 519.667 252.75 514.125 252.75C508.583 252.75 504.062 251.146 500.562 247.938C497.104 244.688 495.125 240.229 494.625 234.562H503.188C503.479 237.521 504.521 239.771 506.312 241.312C508.104 242.812 510.708 243.562 514.125 243.562C517.542 243.562 520.146 242.812 521.938 241.312C523.729 239.771 524.771 237.521 525.062 234.562ZM582.375 282.375L564.375 278.188C568.25 263.271 579.271 255.812 597.438 255.812C608.188 255.812 616.292 258.188 621.75 262.938C627.25 267.646 630 273.188 630 279.562C630 283.938 628.75 287.896 626.25 291.438C623.75 294.938 620 298.021 615 300.688C621.083 302.771 625.646 305.729 628.688 309.562C631.729 313.354 633.25 318.042 633.25 323.625C633.25 331.667 630.292 338.167 624.375 343.125C618.5 348.083 609.688 350.562 597.938 350.562C588.354 350.562 580.792 348.979 575.25 345.812C569.708 342.604 565.542 336.625 562.75 327.875L579.688 322.312C581.438 327.812 583.75 331.375 586.625 333C589.542 334.625 593.125 335.438 597.375 335.438C603.208 335.438 607.458 334.188 610.125 331.688C612.792 329.146 614.125 326.25 614.125 323C614.125 319.25 612.604 316.229 609.562 313.938C606.562 311.646 602.021 310.5 595.938 310.5H591.75V296.688H593.875C599.542 296.688 603.875 295.417 606.875 292.875C609.875 290.333 611.375 286.958 611.375 282.75C611.375 279.417 610.146 276.604 607.688 274.312C605.271 272.021 601.792 270.875 597.25 270.875C589.5 270.875 584.542 274.708 582.375 282.375ZM649.562 349V257.375H717.5V272.875H668.062V293.188H714.062V308.625H668.062V333.562H719.25V349H649.562ZM734.688 349V257.375H762.375L779 319.875L795.438 257.375H823.188V349H806V276.875L787.812 349H770L751.875 276.875V349H734.688ZM841.938 257.375H910.438V272.75H860.438V294H885.188C892.021 294 897.688 294.833 902.188 296.5C906.688 298.167 910.521 301.25 913.688 305.75C916.896 310.25 918.5 315.521 918.5 321.562C918.5 327.771 916.896 333.083 913.688 337.5C910.479 341.917 906.812 344.938 902.688 346.562C898.604 348.188 892.771 349 885.188 349H841.938V257.375ZM860.438 333.625H878.438C884.188 333.625 888.229 333.354 890.562 332.812C892.896 332.229 894.917 330.938 896.625 328.938C898.375 326.938 899.25 324.479 899.25 321.562C899.25 317.312 897.729 314.229 894.688 312.312C891.688 310.354 886.542 309.375 879.25 309.375H860.438V333.625ZM933.562 349V257.375H1001.5V272.875H952.062V293.188H998.062V308.625H952.062V333.562H1003.25V349H933.562ZM1018.94 349V257.375H1048.62C1059.88 257.375 1067.21 257.833 1070.62 258.75C1075.88 260.125 1080.27 263.125 1083.81 267.75C1087.35 272.333 1089.12 278.271 1089.12 285.562C1089.12 291.188 1088.1 295.917 1086.06 299.75C1084.02 303.583 1081.42 306.604 1078.25 308.812C1075.12 310.979 1071.94 312.417 1068.69 313.125C1064.27 314 1057.88 314.438 1049.5 314.438H1037.44V349H1018.94ZM1037.44 272.875V298.875H1047.56C1054.85 298.875 1059.73 298.396 1062.19 297.438C1064.65 296.479 1066.56 294.979 1067.94 292.938C1069.35 290.896 1070.06 288.521 1070.06 285.812C1070.06 282.479 1069.08 279.729 1067.12 277.562C1065.17 275.396 1062.69 274.042 1059.69 273.5C1057.48 273.083 1053.04 272.875 1046.38 272.875H1037.44ZM1105.25 257.375H1167.31V272.75H1123.75V349H1105.25V257.375Z" fill="#176335"/>
<rect x="248.5" y="202.5" width="203" height="203" fill="url(#paint1_linear_411_3)" stroke="#002304"/>
<path d="M261 349L292.312 301.188L263.938 257.375H285.562L303.938 286.812L321.938 257.375H343.375L314.875 301.875L346.188 349H323.875L303.562 317.312L283.188 349H261ZM438.312 349H418.188L410.188 328.188H373.562L366 349H346.375L382.062 257.375H401.625L438.312 349ZM404.25 312.75L391.625 278.75L379.25 312.75H404.25Z" fill="white"/>
<path d="M322.61 384.99H319.65L316.44 382.46V385H314.64V378.01H316.44V380.53L319.55 378.02H322.47L318.21 381.49L322.61 384.99ZM328.223 378.01L331.383 385H329.393L328.783 383.68L325.323 383.67L324.693 385H322.673L326.003 378.01H328.223ZM327.103 379.88L326.153 381.88H328.003L327.103 379.88ZM336.829 378.01H338.629V385H336.829V383.54C336.279 383.78 335.619 383.9 334.849 383.9C332.529 383.9 331.079 382.7 331.079 380.76V378.01H332.879V380.76C332.879 381.09 332.879 382.1 334.849 382.1C336.829 382.1 336.829 381.13 336.829 380.76V378.01ZM347.803 379.8H341.713V380.6H347.013V382.4H341.713V383.2H347.803V385H339.913V378H347.803V379.8ZM357.18 382.89C356.61 384.35 355.11 385.15 352.96 385.15C351.72 385.15 350.7 384.88 349.93 384.35C349 383.71 348.5 382.72 348.5 381.48C348.5 379.19 350.17 377.82 352.96 377.82C355.16 377.82 356.72 378.7 357.24 380.25L355.53 380.82C355.18 379.77 353.77 379.61 352.96 379.61C350.3 379.61 350.3 381.02 350.3 381.48C350.3 382.72 351.2 383.35 352.96 383.35C353.92 383.35 355.14 383.16 355.51 382.23L357.18 382.89ZM366.116 378.01V379.81H362.776V385H360.976V379.81H357.636V378.01H366.116ZM375.836 382.81C375.836 383.87 375.146 385 373.216 385H366.896L366.916 378H372.726C374.316 378 375.346 378.86 375.346 380.2C375.346 380.54 375.276 380.89 375.116 381.21C375.576 381.59 375.836 382.14 375.836 382.81ZM368.706 382.41L368.696 383.2H373.216C373.676 383.2 373.876 383.1 373.936 383.06C373.986 383.03 374.036 383 374.036 382.81C374.036 382.69 374.036 382.41 373.216 382.41H368.706ZM368.706 379.8V380.61H372.726C373.176 380.61 373.376 380.51 373.446 380.46C373.486 380.43 373.546 380.39 373.546 380.2C373.546 380.08 373.546 379.8 372.726 379.8H368.706ZM385.428 381.48C385.428 383.78 383.758 385.15 380.958 385.15C379.718 385.15 378.698 384.88 377.928 384.35C376.998 383.71 376.498 382.72 376.498 381.48C376.498 379.19 378.168 377.82 380.958 377.82C382.208 377.82 383.228 378.08 383.998 378.61C384.928 379.26 385.428 380.25 385.428 381.48ZM383.628 381.48C383.628 380.24 382.728 379.61 380.958 379.61C378.298 379.61 378.298 381.02 378.298 381.48C378.298 382.72 379.198 383.35 380.958 383.35C383.628 383.35 383.628 381.95 383.628 381.48Z" fill="white"/>
<defs>
<linearGradient id="paint0_linear_411_3" x1="1" y1="102" x2="203" y2="102" gradientUnits="userSpaceOnUse">
<stop stop-color="#134D35"/>
<stop offset="1" stop-color="#176335"/>
</linearGradient>
<linearGradient id="paint1_linear_411_3" x1="249" y1="304" x2="451" y2="304" gradientUnits="userSpaceOnUse">
<stop stop-color="#134D35"/>
<stop offset="1" stop-color="#176335"/>
</linearGradient>
</defs>
</svg>
